<?xml version="1.0" encoding="utf-8"?>
<!-- Generator: Adobe Illustrator 27.5.0, SVG Export Plug-In . SVG Version: 6.00 Build 0)  -->
<svg version="1.1" xmlns="http://www.w3.org/2000/svg" xmlns:xlink="http://www.w3.org/1999/xlink" x="0px" y="0px"
	 viewBox="0 0 600 600" style="enable-background:new 0 0 600 600;" xml:space="preserve">
<g id="background">
	<rect y="0" style="fill:#FFFFFF;" width="600" height="600"/>
</g>
<g id="objects">
	<g>
		<ellipse style="fill:#D8DFEA;" cx="300" cy="539.918" rx="128.136" ry="6.304"/>
		<g>
			<g>
				<g>
					<path style="fill:#E8A615;" d="M332.381,220.713c0.407,0.072,0.814,0.156,1.209,0.239v0.012
						C333.195,220.881,332.788,220.785,332.381,220.713z"/>
					<g>
						<path style="fill:#E8A615;" d="M368.819,228.644v33.114h-7.18V229.58c-3.793-1.556-7.671-2.98-11.608-4.248
							c-4.176-1.352-8.424-2.537-12.732-3.554c-11.979-2.812-24.472-4.296-37.3-4.296c-12.84,0-25.333,1.484-37.3,4.308
							c-4.32,1.005-8.556,2.19-12.732,3.542c-3.937,1.268-7.814,2.692-11.608,4.248v32.178h-7.18v-33.127
							c0-2.322,1.409-4.408,3.567-5.265c4.075-1.62,10.046-3.9,12.11-4.58c6.414-2.106,12.996-3.853,19.721-5.181
							c10.806-2.166,21.982-3.303,33.422-3.303s22.617,1.137,33.422,3.291c6.725,1.34,13.307,3.087,19.709,5.205
							c2.064,0.679,8.041,2.96,12.12,4.58C367.41,224.236,368.819,226.322,368.819,228.644z"/>
					</g>
				</g>
				<circle style="fill:#F9B906;" cx="300" cy="380.102" r="143.998"/>
				<path style="fill:#E8A615;" d="M443.993,380.107C443.993,459.625,379.53,524.1,300,524.1
					c-42.026,0-79.841-17.998-106.155-46.717c25.608,23.418,65.551,38.808,102.994,38.808c79.53,0,139.964-61.23,139.964-140.759
					c0-37.491-16.157-76.003-39.659-101.623C425.936,300.147,443.993,338.021,443.993,380.107z"/>
				<circle style="fill:#E8A615;" cx="300" cy="380.102" r="131.193"/>
				<circle style="fill:#C68C17;" cx="300" cy="380.102" r="125.385"/>
				<path style="fill:#E8A615;" d="M301.663,236.124v16.526h-3.327v-16.526c0.55-0.024,1.113-0.024,1.663-0.024
					S301.113,236.1,301.663,236.124z"/>
				<path style="fill:#E8A615;" d="M246.439,246.447l6.324,15.268l-3.074,1.273l-6.324-15.268c0.499-0.233,1.019-0.448,1.528-0.659
					C245.402,246.851,245.922,246.635,246.439,246.447z"/>
				<path style="fill:#E8A615;" d="M199.37,277.117l11.685,11.685l-2.352,2.352l-11.685-11.685c0.372-0.406,0.77-0.804,1.159-1.193
					S198.964,277.49,199.37,277.117z"/>
				<path style="fill:#E8A615;" d="M167.62,323.466l15.268,6.324l-1.273,3.074l-15.268-6.324c0.189-0.518,0.404-1.037,0.614-1.546
					S167.387,323.965,167.62,323.466z"/>
				<path style="fill:#E8A615;" d="M156.024,378.437h16.526v3.327h-16.526C156,381.213,156,380.65,156,380.1
					C156,379.549,156,378.987,156.024,378.437z"/>
				<path style="fill:#E8A615;" d="M166.347,433.66l15.268-6.324l1.273,3.073l-15.268,6.324c-0.233-0.499-0.448-1.019-0.659-1.528
					S166.535,434.178,166.347,433.66z"/>
				<path style="fill:#E8A615;" d="M197.017,480.73l11.685-11.685l2.352,2.352l-11.685,11.685c-0.406-0.372-0.804-0.77-1.193-1.159
					S197.39,481.136,197.017,480.73z"/>
				<path style="fill:#E8A615;" d="M400.63,483.082l-11.685-11.685l2.352-2.352l11.685,11.685c-0.372,0.406-0.77,0.804-1.159,1.193
					S401.036,482.71,400.63,483.082z"/>
				<path style="fill:#E8A615;" d="M432.38,436.734l-15.268-6.324l1.273-3.073l15.268,6.324c-0.189,0.518-0.404,1.037-0.614,1.546
					S432.613,436.234,432.38,436.734z"/>
				<path style="fill:#E8A615;" d="M443.976,381.763H427.45v-3.327h16.526C444,378.987,444,379.549,444,380.1
					C444,380.65,444,381.213,443.976,381.763z"/>
				<path style="fill:#E8A615;" d="M433.653,326.539l-15.268,6.324l-1.273-3.074l15.268-6.324c0.233,0.499,0.448,1.019,0.659,1.528
					S433.465,326.022,433.653,326.539z"/>
				<path style="fill:#E8A615;" d="M402.983,279.47l-11.685,11.685l-2.352-2.352l11.685-11.685c0.406,0.372,0.804,0.77,1.193,1.159
					S402.61,279.063,402.983,279.47z"/>
				<path style="fill:#E8A615;" d="M356.634,247.72l-6.324,15.268l-3.074-1.273l6.324-15.268c0.518,0.189,1.037,0.404,1.546,0.614
					S356.135,247.487,356.634,247.72z"/>
				<circle style="fill:#F9B906;" cx="300" cy="380.102" r="123.164"/>
				<path style="fill:#FFC943;" d="M362.301,273.882L189.362,434.206c-8.017-16.338-12.531-34.707-12.531-54.106
					c0-14.389,2.482-28.198,7.033-41.042l86.515-78.516c9.488-2.354,19.418-3.604,29.623-3.604
					C322.721,256.938,344.014,263.116,362.301,273.882z"/>
				<path style="fill:#FFC943;" d="M414.559,334.884L246.255,490.915c-16.954-8.256-31.738-20.282-43.258-34.992l181.838-165.032
					C397.698,303.128,407.921,318.105,414.559,334.884z"/>
				<path style="fill:#E8A615;" d="M344.759,516.385l-5.285-12.759l2.568-1.064l5.285,12.759c-0.417,0.195-0.852,0.374-1.277,0.55
					C345.625,516.048,345.191,516.227,344.759,516.385z"/>
				<path style="fill:#E8A615;" d="M298.61,524.08v-13.81h2.78v13.81c-0.46,0.02-0.93,0.02-1.39,0.02S299.07,524.1,298.61,524.08z"
					/>
				<path style="fill:#E8A615;" d="M252.378,515.616l5.285-12.759l2.568,1.064l-5.285,12.759c-0.433-0.158-0.867-0.337-1.292-0.513
					C253.229,515.991,252.795,515.811,252.378,515.616z"/>
			</g>
			<g>
				<path style="fill:#F41943;" d="M356.243,62.972v164.955c0,2.208-2.16,3.765-4.253,3.062c-0.65-0.219-1.303-0.433-1.958-0.642
					c-16.171-5.175-33.048-7.85-50.032-7.85c-16.943,0-33.91,2.63-50.032,7.85c-0.655,0.21-1.307,0.424-1.958,0.642
					c-2.093,0.703-4.253-0.854-4.253-3.062V62.972c0-5.077,4.116-9.194,9.194-9.194h94.098
					C352.127,53.778,356.243,57.894,356.243,62.972z"/>
				<path style="fill:#F9B906;" d="M266.494,53.778V217.42c-0.814,0.12-1.615,0.239-2.393,0.359V53.778H266.494z"/>
				<path style="fill:#F9B906;" d="M333.506,225.976c0.395,0.084,0.802,0.168,1.197,0.263c-0.407-0.096-0.802-0.168-1.197-0.251
					V225.976z"/>
				<path style="fill:#F9B906;" d="M335.9,53.778v164.504c-0.778-0.144-1.58-0.287-2.393-0.419V53.778H335.9z"/>
				<path style="fill:#F9B906;" d="M334.703,226.239c0.395,0.084,0.802,0.168,1.197,0.251v0.012
					C335.493,226.407,335.098,226.323,334.703,226.239z"/>
				<path style="fill:#BA0F38;" d="M243.757,223.104c2.417-1.089,8.676-3.482,20.343-5.325v8.712
					c-4.763,1.065-9.489,2.345-14.132,3.853c-0.658,0.215-1.304,0.431-1.963,0.646c-2.082,0.706-4.248-0.85-4.248-3.063V223.104z"/>
				<path style="fill:#BA0F38;" d="M333.506,217.863v8.113c-0.826-0.167-1.651-0.335-2.477-0.491
					c-10.219-1.986-20.606-2.992-31.029-2.992c-8.233,0-16.478,0.622-24.627,1.867c-2.98,0.455-5.935,0.981-8.879,1.604v-8.544
					c8.448-1.197,19.446-2.094,33.506-2.094C313.606,215.326,324.687,216.391,333.506,217.863z"/>
				<path style="fill:#BA0F38;" d="M356.243,223.87v4.057c0,2.214-2.166,3.769-4.248,3.063c-0.658-0.215-1.304-0.431-1.963-0.646
					c-4.655-1.496-9.37-2.776-14.132-3.841v-8.221C345.545,220.041,352.21,222.255,356.243,223.87z"/>
				<path style="fill:#C68C17;" d="M335.9,218.282v8.209c-0.395-0.084-0.802-0.167-1.197-0.251c-0.395-0.096-0.802-0.18-1.197-0.263
					v-8.113C334.32,217.995,335.122,218.138,335.9,218.282z"/>
				<path style="fill:#C68C17;" d="M266.494,217.42v8.544c-0.802,0.167-1.592,0.335-2.393,0.526v-8.712
					C264.878,217.66,265.68,217.54,266.494,217.42z"/>
			</g>
		</g>
	</g>
</g>
</svg>
