<svg xmlns="http://www.w3.org/2000/svg" xmlns:xlink="http://www.w3.org/1999/xlink" version="1.1" viewBox="511 510 58 60">
<g id="surface1">
<path style=" stroke:none;fill-rule:nonzero;fill:rgb(0%,0%,0%);fill-opacity:1;" d="M 540 516 C 539.449219 516 539 515.554688 539 515 L 539 511 C 539 510.445312 539.449219 510 540 510 C 540.550781 510 541 510.445312 541 511 L 541 515 C 541 515.554688 540.550781 516 540 516 Z M 540 516 "/>
<path style=" stroke:none;fill-rule:nonzero;fill:rgb(96.470588%,77.64706%,18.039216%);fill-opacity:1;" d="M 511 515 L 569 515 L 569 555 L 511 555 Z M 511 515 "/>
<path style=" stroke:none;fill-rule:nonzero;fill:rgb(100%,100%,100%);fill-opacity:1;" d="M 531 525 L 516 525 C 515.449219 525 515 524.554688 515 524 C 515 523.445312 515.449219 523 516 523 L 531 523 C 531.550781 523 532 523.445312 532 524 C 532 524.554688 531.550781 525 531 525 Z M 531 525 "/>
<path style=" stroke:none;fill-rule:nonzero;fill:rgb(100%,100%,100%);fill-opacity:1;" d="M 525 521 L 516 521 C 515.449219 521 515 520.554688 515 520 C 515 519.445312 515.449219 519 516 519 L 525 519 C 525.550781 519 526 519.445312 526 520 C 526 520.554688 525.550781 521 525 521 Z M 525 521 "/>
<path style=" stroke:none;fill-rule:nonzero;fill:rgb(100%,100%,100%);fill-opacity:1;" d="M 531 529 L 516 529 C 515.449219 529 515 528.554688 515 528 C 515 527.445312 515.449219 527 516 527 L 531 527 C 531.550781 527 532 527.445312 532 528 C 532 528.554688 531.550781 529 531 529 Z M 531 529 "/>
<path style=" stroke:none;fill-rule:nonzero;fill:rgb(100%,100%,100%);fill-opacity:1;" d="M 529 542 C 526.792969 542 525 540.207031 525 538 C 525 535.792969 526.792969 534 529 534 C 531.207031 534 533 535.792969 533 538 C 533 540.207031 531.207031 542 529 542 Z M 529 536 C 527.898438 536 527 536.898438 527 538 C 527 539.101562 527.898438 540 529 540 C 530.101562 540 531 539.101562 531 538 C 531 536.898438 530.101562 536 529 536 Z M 529 536 "/>
<path style=" stroke:none;fill-rule:nonzero;fill:rgb(100%,100%,100%);fill-opacity:1;" d="M 549 537 C 546.792969 537 545 535.207031 545 533 C 545 530.792969 546.792969 529 549 529 C 551.207031 529 553 530.792969 553 533 C 553 535.207031 551.207031 537 549 537 Z M 549 531 C 547.898438 531 547 531.898438 547 533 C 547 534.101562 547.898438 535 549 535 C 550.101562 535 551 534.101562 551 533 C 551 531.898438 550.101562 531 549 531 Z M 549 531 "/>
<path style=" stroke:none;fill-rule:nonzero;fill:rgb(100%,100%,100%);fill-opacity:1;" d="M 559 547 C 556.792969 547 555 545.207031 555 543 C 555 540.792969 556.792969 539 559 539 C 561.207031 539 563 540.792969 563 543 C 563 545.207031 561.207031 547 559 547 Z M 559 541 C 557.898438 541 557 541.898438 557 543 C 557 544.101562 557.898438 545 559 545 C 560.101562 545 561 544.101562 561 543 C 561 541.898438 560.101562 541 559 541 Z M 559 541 "/>
<path style=" stroke:none;fill-rule:nonzero;fill:rgb(100%,100%,100%);fill-opacity:1;" d="M 536 549 C 533.792969 549 532 547.207031 532 545 C 532 542.792969 533.792969 541 536 541 C 538.207031 541 540 542.792969 540 545 C 540 547.207031 538.207031 549 536 549 Z M 536 543 C 534.898438 543 534 543.898438 534 545 C 534 546.101562 534.898438 547 536 547 C 537.101562 547 538 546.101562 538 545 C 538 543.898438 537.101562 543 536 543 Z M 536 543 "/>
<path style=" stroke:none;fill-rule:nonzero;fill:rgb(100%,100%,100%);fill-opacity:1;" d="M 522 549 C 519.792969 549 518 547.207031 518 545 C 518 542.792969 519.792969 541 522 541 C 524.207031 541 526 542.792969 526 545 C 526 547.207031 524.207031 549 522 549 Z M 522 543 C 520.898438 543 520 543.898438 520 545 C 520 546.101562 520.898438 547 522 547 C 523.101562 547 524 546.101562 524 545 C 524 543.898438 523.101562 543 522 543 Z M 522 543 "/>
<path style=" stroke:none;fill-rule:nonzero;fill:rgb(0%,0%,0%);fill-opacity:1;" d="M 540 568 C 539.449219 568 539 567.554688 539 567 L 539 555 C 539 554.445312 539.449219 554 540 554 C 540.550781 554 541 554.445312 541 555 L 541 567 C 541 567.554688 540.550781 568 540 568 Z M 540 568 "/>
<path style=" stroke:none;fill-rule:nonzero;fill:rgb(0%,0%,0%);fill-opacity:1;" d="M 554 570 C 553.742188 570 553.488281 569.902344 553.292969 569.707031 L 539.292969 555.707031 C 538.902344 555.316406 538.902344 554.683594 539.292969 554.292969 C 539.683594 553.902344 540.316406 553.902344 540.707031 554.292969 L 554.707031 568.292969 C 555.097656 568.683594 555.097656 569.316406 554.707031 569.707031 C 554.511719 569.902344 554.257812 570 554 570 Z M 554 570 "/>
<path style=" stroke:none;fill-rule:nonzero;fill:rgb(0%,0%,0%);fill-opacity:1;" d="M 526 570 C 525.742188 570 525.488281 569.902344 525.292969 569.707031 C 524.902344 569.316406 524.902344 568.683594 525.292969 568.292969 L 539.292969 554.292969 C 539.683594 553.902344 540.316406 553.902344 540.707031 554.292969 C 541.097656 554.683594 541.097656 555.316406 540.707031 555.707031 L 526.707031 569.707031 C 526.511719 569.902344 526.257812 570 526 570 Z M 526 570 "/>
<path style=" stroke:none;fill-rule:nonzero;fill:rgb(100%,100%,100%);fill-opacity:1;" d="M 523.554688 543.445312 C 523.296875 543.445312 523.042969 543.347656 522.847656 543.152344 C 522.457031 542.761719 522.457031 542.128906 522.847656 541.738281 L 525.738281 538.847656 C 526.128906 538.457031 526.761719 538.457031 527.152344 538.847656 C 527.542969 539.238281 527.542969 539.871094 527.152344 540.261719 L 524.261719 543.152344 C 524.066406 543.347656 523.808594 543.445312 523.554688 543.445312 Z M 523.554688 543.445312 "/>
<path style=" stroke:none;fill-rule:nonzero;fill:rgb(100%,100%,100%);fill-opacity:1;" d="M 534.445312 543.445312 C 534.191406 543.445312 533.933594 543.347656 533.738281 543.152344 L 530.847656 540.261719 C 530.457031 539.871094 530.457031 539.238281 530.847656 538.847656 C 531.238281 538.457031 531.871094 538.457031 532.261719 538.847656 L 535.152344 541.738281 C 535.542969 542.128906 535.542969 542.761719 535.152344 543.152344 C 534.957031 543.347656 534.703125 543.445312 534.445312 543.445312 Z M 534.445312 543.445312 "/>
<path style=" stroke:none;fill-rule:nonzero;fill:rgb(100%,100%,100%);fill-opacity:1;" d="M 538.121094 543.867188 C 537.863281 543.867188 537.609375 543.769531 537.414062 543.574219 C 537.023438 543.183594 537.023438 542.554688 537.414062 542.160156 L 545.738281 533.839844 C 546.128906 533.445312 546.761719 533.445312 547.152344 533.839844 C 547.542969 534.230469 547.542969 534.859375 547.152344 535.253906 L 538.828125 543.574219 C 538.632812 543.769531 538.378906 543.867188 538.121094 543.867188 Z M 538.121094 543.867188 "/>
<path style=" stroke:none;fill-rule:nonzero;fill:rgb(100%,100%,100%);fill-opacity:1;" d="M 557.445312 541.445312 C 557.191406 541.445312 556.933594 541.347656 556.738281 541.152344 L 550.847656 535.261719 C 550.457031 534.871094 550.457031 534.238281 550.847656 533.847656 C 551.238281 533.457031 551.871094 533.457031 552.261719 533.847656 L 558.152344 539.738281 C 558.542969 540.128906 558.542969 540.761719 558.152344 541.152344 C 557.957031 541.347656 557.703125 541.445312 557.445312 541.445312 Z M 557.445312 541.445312 "/>
</g>
</svg>