<svg version="1.2" xmlns="http://www.w3.org/2000/svg" viewBox="0 0 58 60" width="58" height="60"><style>.a{fill:#f6c62e}.b{fill:#fff}</style><path  d="m29 6c-0.6 0-1-0.4-1-1v-4c0-0.6 0.4-1 1-1 0.6 0 1 0.4 1 1v4c0 0.6-0.4 1-1 1z"/><path class="a" d="m0 5h58v40h-58z"/><path class="b" d="m20 15h-15c-0.6 0-1-0.4-1-1 0-0.6 0.4-1 1-1h15c0.6 0 1 0.4 1 1 0 0.6-0.4 1-1 1z"/><path class="b" d="m14 11h-9c-0.6 0-1-0.4-1-1 0-0.6 0.4-1 1-1h9c0.6 0 1 0.4 1 1 0 0.6-0.4 1-1 1z"/><path class="b" d="m20 19h-15c-0.6 0-1-0.4-1-1 0-0.6 0.4-1 1-1h15c0.6 0 1 0.4 1 1 0 0.6-0.4 1-1 1z"/><path class="b" d="m18 32c-2.2 0-4-1.8-4-4 0-2.2 1.8-4 4-4 2.2 0 4 1.8 4 4 0 2.2-1.8 4-4 4zm0-6c-1.1 0-2 0.9-2 2 0 1.1 0.9 2 2 2 1.1 0 2-0.9 2-2 0-1.1-0.9-2-2-2z"/><path class="b" d="m38 27c-2.2 0-4-1.8-4-4 0-2.2 1.8-4 4-4 2.2 0 4 1.8 4 4 0 2.2-1.8 4-4 4zm0-6c-1.1 0-2 0.9-2 2 0 1.1 0.9 2 2 2 1.1 0 2-0.9 2-2 0-1.1-0.9-2-2-2z"/><path class="b" d="m48 37c-2.2 0-4-1.8-4-4 0-2.2 1.8-4 4-4 2.2 0 4 1.8 4 4 0 2.2-1.8 4-4 4zm0-6c-1.1 0-2 0.9-2 2 0 1.1 0.9 2 2 2 1.1 0 2-0.9 2-2 0-1.1-0.9-2-2-2z"/><path class="b" d="m25 39c-2.2 0-4-1.8-4-4 0-2.2 1.8-4 4-4 2.2 0 4 1.8 4 4 0 2.2-1.8 4-4 4zm0-6c-1.1 0-2 0.9-2 2 0 1.1 0.9 2 2 2 1.1 0 2-0.9 2-2 0-1.1-0.9-2-2-2z"/><path class="b" d="m11 39c-2.2 0-4-1.8-4-4 0-2.2 1.8-4 4-4 2.2 0 4 1.8 4 4 0 2.2-1.8 4-4 4zm0-6c-1.1 0-2 0.9-2 2 0 1.1 0.9 2 2 2 1.1 0 2-0.9 2-2 0-1.1-0.9-2-2-2z"/><path  d="m29 58c-0.6 0-1-0.4-1-1v-12c0-0.6 0.4-1 1-1 0.6 0 1 0.4 1 1v12c0 0.6-0.4 1-1 1z"/><path  d="m43 60q-0.4 0-0.7-0.3l-14-14c-0.4-0.4-0.4-1 0-1.4 0.4-0.4 1-0.4 1.4 0l14 14c0.4 0.4 0.4 1 0 1.4q-0.3 0.3-0.7 0.3z"/><path  d="m15 60q-0.4 0-0.7-0.3c-0.4-0.4-0.4-1 0-1.4l14-14c0.4-0.4 1-0.4 1.4 0 0.4 0.4 0.4 1 0 1.4l-14 14q-0.3 0.3-0.7 0.3z"/><path class="b" d="m12.6 33.4q-0.4 0-0.8-0.2c-0.3-0.4-0.3-1.1 0-1.5l2.9-2.9c0.4-0.3 1.1-0.3 1.5 0 0.3 0.4 0.3 1.1 0 1.5l-2.9 2.9c-0.2 0.1-0.5 0.2-0.7 0.2z"/><path class="b" d="m23.4 33.4c-0.2 0-0.5-0.1-0.7-0.2l-2.9-2.9c-0.3-0.4-0.3-1.1 0-1.5 0.4-0.3 1.1-0.3 1.5 0l2.9 2.9c0.3 0.4 0.3 1.1 0 1.5q-0.4 0.2-0.8 0.2z"/><path class="b" d="m27.1 33.9q-0.4 0-0.7-0.3c-0.4-0.4-0.4-1 0-1.4l8.3-8.4c0.4-0.4 1.1-0.4 1.5 0 0.3 0.4 0.3 1.1 0 1.5l-8.4 8.3q-0.3 0.3-0.7 0.3z"/><path class="b" d="m46.4 31.4c-0.2 0-0.5-0.1-0.7-0.2l-5.9-5.9c-0.3-0.4-0.3-1.1 0-1.5 0.4-0.3 1.1-0.3 1.5 0l5.9 5.9c0.3 0.4 0.3 1.1 0 1.5q-0.4 0.2-0.8 0.2z"/></svg>