<svg viewBox="332.64 287.28000000000003 414.72 505.44000000000005" xml:space="preserve" version="1.1" xmlns:xlink="http://www.w3.org/1999/xlink" xmlns="http://www.w3.org/2000/svg" style="max-height: 500px" width="414.72" height="505.44000000000005">
<desc>Created with Fabric.js 5.2.4</desc>
<defs>
</defs>
<g id="c955141f-d762-448b-9c5b-c5fdd6e8b763" transform="matrix(1 0 0 1 540 540)">
<rect height="1080" width="1080" ry="0" rx="0" y="-540" x="-540" style="stroke: none; stroke-width: 1; stroke-dasharray: none; stroke-linecap: butt; stroke-dashoffset: 0; stroke-linejoin: miter; stroke-miterlimit: 4; fill: rgb(255,255,255); fill-rule: nonzero; opacity: 1; visibility: hidden;"/>
</g>
<g id="c007ab1c-9198-4046-aeb6-c29ae7760299" transform="matrix(1 0 0 1 540 540)">
</g>
<g transform="matrix(1 0 0 1 539.99 540)">
<path stroke-linecap="round" d="M 332.803 10.449 L 95.726 10.449 C 73.451 10.449 55.391999999999996 28.509 55.391999999999996 50.784 L 55.391999999999996 461.218 C 55.391999999999996 483.494 73.451 501.552 95.726 501.552 L 416.272 501.552 C 438.54699999999997 501.552 456.606 483.493 456.606 461.218 L 456.606 134.253 L 332.803 10.449 z" transform="translate(-256, -256)" style="stroke: none; stroke-width: 1; stroke-dasharray: none; stroke-linecap: butt; stroke-dashoffset: 0; stroke-linejoin: miter; stroke-miterlimit: 4; fill: rgb(255,175,0); fill-rule: nonzero; opacity: 1;"/>
</g>
<g transform="matrix(1 0 0 1 678.71 356.35)">
<path stroke-linecap="round" d="M 373.139 134.253 L 456.606 134.253 L 332.806 10.451 L 332.806 93.92099999999999 C 332.803 116.195 350.861 134.253 373.139 134.253 z" transform="translate(-394.71, -72.35)" style="stroke: none; stroke-width: 1; stroke-dasharray: none; stroke-linecap: butt; stroke-dashoffset: 0; stroke-linejoin: miter; stroke-miterlimit: 4; fill: rgb(255,212,29); fill-rule: nonzero; opacity: 1;"/>
</g>
<g transform="matrix(1 0 0 1 513.88 549.9)">
<rect height="185.99" width="185.99" ry="0" rx="0" y="-92.995" x="-92.995" style="stroke: none; stroke-width: 1; stroke-dasharray: none; stroke-linecap: butt; stroke-dashoffset: 0; stroke-linejoin: miter; stroke-miterlimit: 4; fill: rgb(255,255,255); fill-rule: nonzero; opacity: 1;"/>
</g>
<g transform="matrix(1 0 0 1 566.13 602.17)">
<polygon points="40.74,-93 40.74,40.74 -93,40.74 -93,93 93,93 93,-93" style="stroke: none; stroke-width: 1; stroke-dasharray: none; stroke-linecap: butt; stroke-dashoffset: 0; stroke-linejoin: miter; stroke-miterlimit: 4; fill: rgb(230,231,232); fill-rule: nonzero; opacity: 1;"/>
</g>
<g transform="matrix(1 0 0 1 558.51 418.25)">
<path stroke-linecap="round" d="M 272.173 144.702 L 276.851 144.702 C 282.622 144.702 287.3 140.024 287.3 134.253 C 287.3 128.48199999999997 282.622 123.80399999999999 276.851 123.80399999999999 L 272.173 123.80399999999999 C 266.402 123.80399999999999 261.724 128.482 261.724 134.253 C 261.725 140.024 266.403 144.702 272.173 144.702 z" transform="translate(-274.51, -134.25)" style="stroke: none; stroke-width: 1; stroke-dasharray: none; stroke-linecap: butt; stroke-dashoffset: 0; stroke-linejoin: miter; stroke-miterlimit: 4; fill: rgb(255,255,255); fill-rule: nonzero; opacity: 1;"/>
</g>
<g transform="matrix(1 0 0 1 471.63 418.25)">
<path stroke-linecap="round" d="M 136.877 144.702 L 238.36900000000003 144.702 C 244.14000000000001 144.702 248.81800000000004 140.024 248.81800000000004 134.253 C 248.81800000000004 128.48199999999997 244.14000000000004 123.80399999999999 238.36900000000003 123.80399999999999 L 136.877 123.80399999999999 C 131.10600000000002 123.80399999999999 126.42800000000001 128.482 126.42800000000001 134.253 C 126.428 140.024 131.106 144.702 136.877 144.702 z" transform="translate(-187.62, -134.25)" style="stroke: none; stroke-width: 1; stroke-dasharray: none; stroke-linecap: butt; stroke-dashoffset: 0; stroke-linejoin: miter; stroke-miterlimit: 4; fill: rgb(255,255,255); fill-rule: nonzero; opacity: 1;"/>
</g>
</svg>