<?xml version="1.0" encoding="UTF-8"?>
<svg xmlns="http://www.w3.org/2000/svg" xmlns:xlink="http://www.w3.org/1999/xlink" width="3600" height="3600" viewBox="0 0 3600 3600">

<path fill-rule="nonzero" fill="rgb(95.701599%, 26.268005%, 21.166992%)" fill-opacity="1" d="M 750 1800 C 750 1220.101562 1220.101562 750 1800 750 C 2379.898438 750 2850 1220.101562 2850 1800 C 2850 2379.898438 2379.898438 2850 1800 2850 C 1220.101562 2850 750 2379.898438 750 1800 Z M 750 1800 "/>
<path fill-rule="nonzero" fill="rgb(100%, 100%, 100%)" fill-opacity="1" d="M 900 1800 C 900 1302.941406 1302.941406 900 1800 900 C 2297.058594 900 2700 1302.941406 2700 1800 C 2700 2297.050781 2297.058594 2700 1800 2700 C 1302.941406 2700 900 2297.050781 900 1800 Z M 900 1800 "/>
<path fill-rule="nonzero" fill="rgb(95.701599%, 26.268005%, 21.166992%)" fill-opacity="1" d="M 1050 1800 C 1050 1385.789062 1385.789062 1050 1800 1050 C 2214.210938 1050 2550 1385.789062 2550 1800 C 2550 2214.210938 2214.210938 2550 1800 2550 C 1385.789062 2550 1050 2214.210938 1050 1800 Z M 1050 1800 "/>
<path fill-rule="nonzero" fill="rgb(100%, 100%, 100%)" fill-opacity="1" d="M 1200 1800 C 1200 1468.628906 1468.628906 1200 1800 1200 C 2131.371094 1200 2400 1468.628906 2400 1800 C 2400 2131.371094 2131.371094 2400 1800 2400 C 1468.628906 2400 1200 2131.371094 1200 1800 Z M 1200 1800 "/>
<path fill-rule="nonzero" fill="rgb(95.701599%, 26.268005%, 21.166992%)" fill-opacity="1" d="M 1350 1800 C 1350 1551.46875 1551.46875 1350 1800 1350 C 2048.53125 1350 2250 1551.46875 2250 1800 C 2250 2048.53125 2048.53125 2250 1800 2250 C 1551.46875 2250 1350 2048.53125 1350 1800 Z M 1350 1800 "/>
<path fill-rule="nonzero" fill="rgb(100%, 100%, 100%)" fill-opacity="1" d="M 1500 1800 C 1500 1634.320312 1634.320312 1500 1800 1500 C 1965.679688 1500 2100 1634.320312 2100 1800 C 2100 1965.679688 1965.679688 2100 1800 2100 C 1634.320312 2100 1500 1965.679688 1500 1800 Z M 1500 1800 "/>
<path fill-rule="nonzero" fill="rgb(95.701599%, 26.268005%, 21.166992%)" fill-opacity="1" d="M 1650 1800 C 1650 1717.160156 1717.160156 1650 1800 1650 C 1882.839844 1650 1950 1717.160156 1950 1800 C 1950 1882.839844 1882.839844 1950 1800 1950 C 1717.160156 1950 1650 1882.839844 1650 1800 Z M 1650 1800 "/>
<path fill-rule="nonzero" fill="rgb(95.701599%, 26.268005%, 21.166992%)" fill-opacity="1" stroke-width="225" stroke-linecap="butt" stroke-linejoin="miter" stroke="rgb(100%, 100%, 100%)" stroke-opacity="1" stroke-miterlimit="10" d="M 29119.609375 28329.804688 L 26603.90625 26123.789062 L 26463.203125 24988.007812 L 17784.492188 18221.40625 C 17624.296875 18096.992188 17583.203125 17881.601562 17692.8125 17740.507812 C 17802.5 17599.296875 18021.210938 17585.703125 18181.484375 17710.117188 L 26861.289062 24477.382812 L 27996.992188 24336.796875 L 30750 26238.515625 L 28889.21875 26468.90625 Z M 29119.609375 28329.804688 " transform="matrix(0.1, 0, 0, -0.1, 0, 3600)"/>
</svg>
