<svg
   xmlns="http://www.w3.org/2000/svg"
   id="svg8"
   width="1000"
   height="950.637"
   version="1.1"
   viewBox="0 0 264.583 251.523"
>
   <g
   id="layer1"
   fill="#000"
   fillOpacity="1"
   fillRule="nonzero"
   stroke="none"
   strokeWidth="7.713"
   transform="translate(0 -45.477)"
   >
   <path
      id="path7622"
      d="M263.746 161.614c-1.805-19.521-11.33-35.802-18.17-53.28-8.03-12.655-19.437-24.926-31.715-33.348-9.587-4.882-17.461-14.091-28.86-14.785-24.473-10.551-54.39-12.834-82.695-9.055-2.846-5.823-9.456-4.72-14.808-5.669-7.536 3.147-16.498 2.838-23.763 6.841-11.708 2.684-22.575 11.415-30.048 20.94-12.988 10.882-15.38 24.542-24.04 37.8-.949 4.326-2.222 11.846-4.836 15.456-11.57 48.79-3.54 101.66 38.008 133.127 23.43 17.384 48.697 30.519 77.018 36.272 42.488 4.019 83.573-2.044 111.578-36.272 26.431-26.192 36.272-61.362 32.331-98.027m-30.611 60.644c-16.274 24.171-40.6 50.456-70.27 53.194-17.052 4.265-39.774 4.967-55.546-2.823-30.912-12.826-68.272-30.542-81.5-65.696C9 167.275 20.152 119.595 46.753 87.966c11.083-14.639 27.534-21.403 44.764-23.755 1.257 2.352 2.684 5.584 5.669 6.209 10.134 1.411 18.564-4.797 29.431-3.386 40.83 2.283 82.363 16.767 104.244 55.477 16.751 28.081 20.692 71.195 2.275 99.747"
   ></path>
   <path
      id="path7634"
      d="M76.803 90.248c3.54 6.764.957 15.348-2.275 21.557-4.103 4.72-10.474 6.062-16.45 4.489-3.217-3.618-2.36-9.603-1.728-14.168.971-6.556 4.164-12.587 11.337-15.264 3.448.24 6.363 1.497 9.116 3.386"
   ></path>
   <path
      id="path7654"
      d="M208.754 116.848c3.695 3.849 4.798 9.51 3.379 14.785-1.743 5.9-7.304 9.286-12.425 11.878-3.232-.07-6.147-.625-8.5-2.83-2.591-7.166-.246-15.11 2.276-21.558 3.308-5.113 11.175-7.234 15.27-2.275"
   ></path>
   <path
      id="path7658"
      d="M151.391 245.795c8.276 2.676 18.896 1.103 24.95 7.944.47 4.018-.4 7.566-3.462 10.242-8.662 2.19-15.264-4.18-22.652-1.735-13.451-3.694-31.954 3.687-41.317-8.507-.948-3.378-1.103-8.345 2.29-10.227 14.084-2.599 26.432 2.376 40.191 2.283"
   ></path>
   </g>
</svg>